<svg width="38" height="32" viewBox="0 0 38 32" fill="none" xmlns="http://www.w3.org/2000/svg">
<path d="M4.99414 16.5716C4.42453 16.3117 4.42453 15.6891 4.99414 15.4292L32.4076 2.93848C32.9949 2.67187 33.7426 2.99047 33.7426 3.51036L33.732 28.3958C33.732 28.909 32.9878 29.2343 32.3953 28.9663L4.99414 16.5716V16.5716ZM0.615387 15.9997C0.615387 17.0128 1.26788 18.0273 2.57463 18.6205L31.1079 31.5604C33.7937 32.7802 37.2308 31.3178 37.2308 28.941V3.05846C37.2308 0.681627 33.7937 -0.779397 31.1079 0.439012L2.57463 13.3789C1.26788 13.9735 0.615387 14.9853 0.615387 15.9997V15.9997Z" fill="black"/>
</svg>
