<svg width="36" height="34" viewBox="0 0 36 34" fill="none" xmlns="http://www.w3.org/2000/svg">
<path d="M17.3075 4.06598C17.5874 3.53706 18.2579 3.53706 18.5378 4.06598L31.9893 29.5214C32.2764 30.0667 31.9333 30.761 31.3735 30.761L4.57379 30.7511C4.02109 30.7511 3.6708 30.0601 3.95936 29.5099L17.3075 4.06598V4.06598ZM17.9234 0C16.8323 0 15.7398 0.605885 15.101 1.81929L1.16569 28.3145C-0.147877 30.8085 1.42697 34 3.98663 34H31.8601C34.4198 34 35.9932 30.8085 34.6811 28.3145L20.7458 1.81929C20.1055 0.605885 19.0159 0 17.9234 0V0Z" fill="black"/>
</svg>
