<svg width="50" height="34" viewBox="0 0 50 34" fill="none" xmlns="http://www.w3.org/2000/svg">
<path d="M23.1667 12.75H0.46154V8.5H23.1667C24.3061 8.5 25.2308 7.548 25.2308 6.375C25.2308 5.202 24.3061 4.25 23.1667 4.25C22.3348 4.25 21.6248 4.76425 21.2987 5.49737L17.6885 3.46588C18.7185 1.41525 20.7723 0 23.1667 0C31.3632 0 31.3591 12.75 23.1667 12.75ZM37.6154 27.625C37.6154 24.106 34.8412 21.25 31.4231 21.25H0.46154V25.5H31.4231C32.5625 25.5 33.4872 26.452 33.4872 27.625C33.4872 28.798 32.5625 29.75 31.4231 29.75C30.5912 29.75 29.8812 29.2358 29.5551 28.5026L25.9449 30.5341C26.9749 32.5847 29.0287 34 31.4231 34C34.8412 34 37.6154 31.144 37.6154 27.625ZM39.7084 11.3581C39.8776 9.758 41.178 8.5 42.7756 8.5C44.4827 8.5 45.8718 9.93012 45.8718 11.6875C45.8718 13.4449 44.4827 14.875 42.7756 14.875H0.46154V19.125H42.7756C46.7635 19.125 50 15.793 50 11.6875C50 7.582 46.7635 4.25 42.7756 4.25C39.4235 4.25 36.6308 6.6215 35.8155 9.81112L39.7084 11.3581V11.3581Z" fill="black"/>
</svg>
